<?xml version="1.0" encoding="UTF-8" standalone="no"?>
<svg
   xmlns:dc="http://purl.org/dc/elements/1.1/"
   xmlns:cc="http://creativecommons.org/ns#"
   xmlns:rdf="http://www.w3.org/1999/02/22-rdf-syntax-ns#"
   xmlns:svg="http://www.w3.org/2000/svg"
   xmlns="http://www.w3.org/2000/svg"
   version="1.1"
   id="svg2"
   viewBox="0 0 81.877365 49.836792"
   height="49.836792"
   width="81.877365">
  <defs
     id="defs4" />
  <metadata
     id="metadata7">
    <rdf:RDF>
      <cc:Work
         rdf:about="">
        <dc:format>image/svg+xml</dc:format>
        <dc:type
           rdf:resource="http://purl.org/dc/dcmitype/StillImage" />
        <dc:title></dc:title>
      </cc:Work>
    </rdf:RDF>
  </metadata>
  <g
     transform="translate(-0.12263701,-988.52539)"
     id="layer1">
    <g
       id="g4187">
      <rect
         ry="7.2119145"
         y="990.36218"
         x="2"
         height="48"
         width="80"
         id="rect4154"
         style="color:#000000;clip-rule:nonzero;display:inline;overflow:visible;visibility:visible;opacity:1;isolation:auto;mix-blend-mode:normal;color-interpolation:sRGB;color-interpolation-filters:linearRGB;solid-color:#000000;solid-opacity:1;fill:#cccccc;fill-opacity:1;fill-rule:nonzero;stroke:none;stroke-width:0.45959368;stroke-linecap:round;stroke-linejoin:round;stroke-miterlimit:4;stroke-dasharray:none;stroke-dashoffset:0;stroke-opacity:1;color-rendering:auto;image-rendering:auto;shape-rendering:auto;text-rendering:auto;enable-background:accumulate" />
      <rect
         style="color:#000000;clip-rule:nonzero;display:inline;overflow:visible;visibility:visible;opacity:1;isolation:auto;mix-blend-mode:normal;color-interpolation:sRGB;color-interpolation-filters:linearRGB;solid-color:#000000;solid-opacity:1;fill:#ececec;fill-opacity:1;fill-rule:nonzero;stroke:none;stroke-width:0.45959368;stroke-linecap:round;stroke-linejoin:round;stroke-miterlimit:4;stroke-dasharray:none;stroke-dashoffset:0;stroke-opacity:1;color-rendering:auto;image-rendering:auto;shape-rendering:auto;text-rendering:auto;enable-background:accumulate"
         id="rect4136"
         width="80"
         height="48"
         x="0.12263701"
         y="988.52539"
         ry="7.2119145" />
      <rect
         style="color:#000000;clip-rule:nonzero;display:inline;overflow:visible;visibility:visible;opacity:1;isolation:auto;mix-blend-mode:normal;color-interpolation:sRGB;color-interpolation-filters:linearRGB;solid-color:#000000;solid-opacity:1;fill:#ffff00;fill-opacity:1;fill-rule:nonzero;stroke:none;stroke-width:2;stroke-linecap:round;stroke-linejoin:round;stroke-miterlimit:4;stroke-dasharray:none;stroke-dashoffset:0;stroke-opacity:1;color-rendering:auto;image-rendering:auto;shape-rendering:auto;text-rendering:auto;enable-background:accumulate"
         id="rect4140"
         width="16.178572"
         height="19.892857"
         x="59.964291"
         y="996.32648"
         ry="2.2403839e-05" />
      <g
         style="font-style:normal;font-weight:normal;font-size:5.18160629px;line-height:125%;font-family:sans-serif;letter-spacing:0px;word-spacing:0px;fill:#000000;fill-opacity:1;stroke:none;stroke-width:1px;stroke-linecap:butt;stroke-linejoin:miter;stroke-opacity:1"
         id="text4142">
        <path
           d="m 5.4705058,1000.6889 0,2.8388 0.5237268,0 q 0.187226,0 0.2656586,0.073 0.080963,0.071 0.080963,0.1873 0,0.1138 -0.080963,0.1872 -0.078433,0.071 -0.2656586,0.071 l -1.5661202,0 q -0.187226,0 -0.2681886,-0.071 -0.078433,-0.073 -0.078433,-0.1898 0,-0.1138 0.078433,-0.1847 0.080963,-0.073 0.2681886,-0.073 l 0.5237268,0 0,-2.1633 -0.4630049,0.1215 q -0.1113236,0.03 -0.1669853,0.03 -0.098673,0 -0.1720456,-0.078 -0.070842,-0.078 -0.070842,-0.1923 0,-0.1037 0.053132,-0.1619 0.053132,-0.061 0.2226471,-0.1063 l 1.1157658,-0.2884 z"
           style="font-style:normal;font-variant:normal;font-weight:bold;font-stretch:normal;font-family:'Courier New';-inkscape-font-specification:'Courier New Bold'"
           id="path4157" />
        <path
           d="m 7.8285416,1003.5277 1.1360064,0 q 0.093613,-0.076 0.1771057,-0.076 0.1189138,0 0.187226,0.078 0.070842,0.078 0.070842,0.2682 l 0,0.2479 -2.3630958,0 0,-0.549 q 1.4016649,-1.1562 1.6926243,-1.4877 0.1467447,-0.1695 0.1467447,-0.3213 0,-0.1898 -0.1669854,-0.334 -0.1644552,-0.1467 -0.4402341,-0.1467 -0.2783089,0 -0.4630049,0.1619 -0.096143,0.086 -0.1543349,0.2555 -0.035421,0.1063 -0.098673,0.1518 -0.060722,0.046 -0.1518048,0.046 -0.1062635,0 -0.184696,-0.076 -0.075902,-0.076 -0.075902,-0.1771 0,-0.1518 0.1391545,-0.3795 0.1416845,-0.2277 0.4098731,-0.3644 0.2707187,-0.1366 0.5869789,-0.1366 0.4908357,0 0.8045658,0.2986 0.31373,0.296 0.31373,0.7185 0,0.2151 -0.091083,0.3998 -0.088553,0.1821 -0.4301138,0.506 -0.2681886,0.2555 -1.0449235,0.9159 z"
           style="font-style:normal;font-variant:normal;font-weight:bold;font-stretch:normal;font-family:'Courier New';-inkscape-font-specification:'Courier New Bold'"
           id="path4159" />
        <path
           d="m 12.160041,1002.3132 q 0.230237,0.1569 0.344091,0.3644 0.113853,0.2049 0.113853,0.4604 0,0.2758 -0.151805,0.5111 -0.149274,0.2328 -0.435173,0.3542 -0.2859,0.1189 -0.748905,0.1189 -0.602159,0 -0.905769,-0.1872 -0.169515,-0.1063 -0.169515,-0.253 0,-0.1113 0.07337,-0.1872 0.0759,-0.079 0.182166,-0.079 0.07337,0 0.151805,0.051 0.111324,0.076 0.209997,0.1012 0.151805,0.036 0.417463,0.036 0.452885,0 0.655291,-0.1164 0.202407,-0.1189 0.202407,-0.334 0,-0.1594 -0.118914,-0.3061 -0.116384,-0.1493 -0.31373,-0.2303 -0.113854,-0.046 -0.384573,-0.063 -0.129034,-0.01 -0.199876,-0.078 -0.06831,-0.073 -0.06831,-0.1796 0,-0.1113 0.0759,-0.1872 0.0759,-0.076 0.192286,-0.076 0.258069,0 0.275779,0 0.101204,-0.01 0.202407,-0.066 0.101203,-0.056 0.161925,-0.1518 0.06325,-0.099 0.06325,-0.2024 0,-0.1645 -0.146745,-0.2834 -0.144214,-0.1215 -0.435174,-0.1215 -0.374452,0 -0.571798,0.2176 -0.05819,0.063 -0.09361,0.081 -0.05313,0.028 -0.118914,0.028 -0.106263,0 -0.182166,-0.076 -0.0759,-0.076 -0.0759,-0.1872 0,-0.1746 0.232767,-0.339 0.339031,-0.2404 0.847578,-0.2404 0.480715,0 0.771674,0.2733 0.29096,0.2732 0.29096,0.6578 0,0.1999 -0.08602,0.3744 -0.08602,0.1721 -0.258068,0.3188 z"
           style="font-style:normal;font-variant:normal;font-weight:bold;font-stretch:normal;font-family:'Courier New';-inkscape-font-specification:'Courier New Bold'"
           id="path4161" />
        <path
           d="m 15.287222,1000.7724 0,2.0291 q 0.164455,0 0.242887,0.073 0.07843,0.071 0.07843,0.1847 0,0.1138 -0.08096,0.1872 -0.07843,0.073 -0.240357,0.073 l 0,0.2075 q 0.164455,0 0.242887,0.073 0.07843,0.073 0.07843,0.1873 0,0.1138 -0.08096,0.1872 -0.07843,0.071 -0.265658,0.071 l -0.695773,0 q -0.187226,0 -0.268188,-0.071 -0.07843,-0.073 -0.07843,-0.1898 0,-0.1138 0.07843,-0.1847 0.08096,-0.073 0.268188,-0.073 l 0.202407,0 0,-0.2075 -1.409255,0 0,-0.4327 1.24227,-2.1151 0.685652,0 z m -0.518667,2.0291 0,-1.2751 -0.751434,1.2751 0.751434,0 z"
           style="font-style:normal;font-variant:normal;font-weight:bold;font-stretch:normal;font-family:'Courier New';-inkscape-font-specification:'Courier New Bold'"
           id="path4163" />
        <path
           d="m 17.197432,1001.2911 0,0.6173 q 0.28843,-0.091 0.523727,-0.091 0.478186,0 0.794446,0.3264 0.31626,0.3264 0.31626,0.8425 0,0.5313 -0.32132,0.8349 -0.318791,0.3011 -0.979142,0.3011 -0.581918,0 -0.920949,-0.2201 -0.197347,-0.1265 -0.197347,-0.2909 0,-0.1038 0.0759,-0.1797 0.07843,-0.078 0.184696,-0.078 0.08855,0 0.192286,0.086 0.103733,0.083 0.217587,0.1164 0.161925,0.048 0.414933,0.048 0.470595,0 0.642641,-0.1493 0.172045,-0.1518 0.172045,-0.463 0,-0.3062 -0.166985,-0.4807 -0.164455,-0.1746 -0.425054,-0.1746 -0.280839,0 -0.64011,0.1822 -0.08096,0.043 -0.141685,0.043 -0.111323,0 -0.187226,-0.081 -0.07337,-0.081 -0.07337,-0.21 l 0,-1.4978 1.586361,0 q 0.187226,0 0.265658,0.073 0.08096,0.071 0.08096,0.1872 0,0.1139 -0.08096,0.1872 -0.07843,0.071 -0.265658,0.071 l -1.067695,0 z"
           style="font-style:normal;font-variant:normal;font-weight:bold;font-stretch:normal;font-family:'Courier New';-inkscape-font-specification:'Courier New Bold'"
           id="path4165" />
        <path
           d="m 20.25377,1002.2753 q 0.187226,-0.1569 0.356742,-0.2277 0.169515,-0.073 0.361801,-0.073 0.407343,0 0.713483,0.3238 0.30614,0.3239 0.30614,0.8122 0,0.4529 -0.285899,0.7337 -0.283369,0.2783 -0.771675,0.2783 -0.407343,0 -0.670471,-0.1897 -0.263129,-0.1898 -0.397223,-0.5845 -0.134095,-0.3947 -0.134095,-0.8804 0,-0.582 0.265659,-0.9665 0.265659,-0.3871 0.62493,-0.5997 0.359272,-0.2125 0.759024,-0.2125 0.316261,0 0.490836,0.124 0.113854,0.083 0.113854,0.2125 0,0.1139 -0.0759,0.1923 -0.0759,0.076 -0.182165,0.076 -0.06072,0 -0.174576,-0.061 -0.06831,-0.035 -0.131564,-0.035 -0.247948,0 -0.513607,0.1416 -0.265658,0.1392 -0.460475,0.4302 -0.134094,0.2024 -0.194816,0.506 z m 0.0759,0.802 q 0.08096,0.3036 0.217587,0.4149 0.139154,0.1114 0.394692,0.1114 0.255538,0 0.392163,-0.1341 0.139154,-0.1341 0.139154,-0.3644 0,-0.2631 -0.159395,-0.4377 -0.156865,-0.1745 -0.354211,-0.1745 -0.156865,0 -0.336501,0.1543 -0.177106,0.1543 -0.293489,0.4301 z"
           style="font-style:normal;font-variant:normal;font-weight:bold;font-stretch:normal;font-family:'Courier New';-inkscape-font-specification:'Courier New Bold'"
           id="path4167" />
        <path
           d="m 24.382864,1001.2911 -1.186608,0 q -0.01012,0.1518 -0.07843,0.2201 -0.06831,0.066 -0.179636,0.066 -0.116384,0 -0.189756,-0.078 -0.07084,-0.078 -0.07084,-0.2656 l 0,-0.4605 2.251773,0 0,0.5187 -0.839987,2.4997 q -0.05313,0.1569 -0.118914,0.21 -0.06325,0.051 -0.154335,0.051 -0.108793,0 -0.187226,-0.076 -0.0759,-0.076 -0.0759,-0.1746 0,-0.056 0.04048,-0.1771 l 0.789385,-2.3327 z"
           style="font-style:normal;font-variant:normal;font-weight:bold;font-stretch:normal;font-family:'Courier New';-inkscape-font-specification:'Courier New Bold'"
           id="path4169" />
        <path
           d="m 27.68968,1002.3891 q 0.199876,0.1544 0.29855,0.3517 0.101203,0.1948 0.101203,0.4301 0,0.2606 -0.129034,0.4807 -0.126504,0.2176 -0.399753,0.3441 -0.273249,0.1265 -0.60722,0.1265 -0.33397,0 -0.602159,-0.1265 -0.268189,-0.1265 -0.397223,-0.3466 -0.126504,-0.2201 -0.126504,-0.4782 0,-0.2353 0.09867,-0.4301 0.101204,-0.1973 0.30108,-0.3517 -0.174576,-0.1619 -0.263128,-0.3441 -0.08855,-0.1821 -0.08855,-0.3845 0,-0.3973 0.303609,-0.6832 0.30361,-0.2884 0.779265,-0.2884 0.475656,0 0.779265,0.2884 0.30361,0.2859 0.30361,0.6832 0,0.2049 -0.08855,0.3871 -0.08602,0.1821 -0.263128,0.3415 z m -0.179636,-0.7185 q 0,-0.1923 -0.151805,-0.3264 -0.149274,-0.1366 -0.404813,-0.1366 -0.258068,0 -0.409873,0.1366 -0.149275,0.1341 -0.149275,0.3264 0,0.1948 0.149275,0.3314 0.151805,0.1341 0.409873,0.1341 0.255539,0 0.404813,-0.1341 0.151805,-0.1366 0.151805,-0.3314 z m 0.06072,1.5256 q 0,-0.2049 -0.177106,-0.3694 -0.174575,-0.167 -0.435174,-0.167 -0.260598,0 -0.437704,0.167 -0.174575,0.1645 -0.174575,0.3745 0,0.1619 0.151805,0.2833 0.151805,0.119 0.460474,0.119 0.3112,0 0.460475,-0.119 0.151805,-0.1214 0.151805,-0.2884 z"
           style="font-style:normal;font-variant:normal;font-weight:bold;font-stretch:normal;font-family:'Courier New';-inkscape-font-specification:'Courier New Bold'"
           id="path4171" />
        <path
           d="m 30.791559,1002.6851 q -0.194816,0.167 -0.356741,0.2379 -0.161926,0.068 -0.341561,0.068 -0.417464,0 -0.731194,-0.334 -0.3112,-0.334 -0.3112,-0.8299 0,-0.3871 0.215057,-0.7033 0.29349,-0.4352 0.827337,-0.4352 0.382042,0 0.667941,0.2302 0.285899,0.2278 0.419994,0.6604 0.134094,0.4301 0.134094,0.8982 0,0.7944 -0.61481,1.2751 -0.475655,0.3694 -1.042393,0.3694 -0.31373,0 -0.485776,-0.1265 -0.116384,-0.084 -0.116384,-0.2201 0,-0.1113 0.07337,-0.1847 0.0759,-0.076 0.184696,-0.076 0.06072,0 0.136624,0.038 0.09867,0.051 0.207467,0.051 0.392162,0 0.723603,-0.2657 0.331441,-0.2682 0.409873,-0.6528 z m -0.07337,-0.8172 q -0.08349,-0.3592 -0.247948,-0.5085 -0.161925,-0.1518 -0.371922,-0.1518 -0.220117,0 -0.374452,0.1695 -0.154335,0.167 -0.154335,0.4453 0,0.2909 0.154335,0.4706 0.156865,0.1796 0.356741,0.1796 0.351682,0 0.637581,-0.6047 z"
           style="font-style:normal;font-variant:normal;font-weight:bold;font-stretch:normal;font-family:'Courier New';-inkscape-font-specification:'Courier New Bold'"
           id="path4173" />
        <path
           d="m 34.300781,1002.1209 0,0.5693 q 0,0.506 -0.293489,0.969 -0.290959,0.463 -0.834927,0.463 -0.31373,0 -0.531317,-0.1366 -0.215057,-0.1392 -0.409873,-0.5085 -0.192286,-0.372 -0.192286,-0.7869 l 0,-0.5693 q 0,-0.5035 0.290959,-0.9665 0.290959,-0.4655 0.834927,-0.4655 0.3112,0 0.526257,0.1366 0.217587,0.1367 0.412403,0.5086 0.197346,0.3694 0.197346,0.7868 z m -0.521196,0 q 0,-0.4225 -0.235298,-0.7387 -0.134094,-0.1746 -0.376982,-0.1746 -0.235298,0 -0.384572,0.1923 -0.225178,0.2909 -0.225178,0.721 l 0,0.5693 q 0,0.4251 0.237828,0.7388 0.131564,0.1746 0.376982,0.1746 0.232768,0 0.382042,-0.1923 0.225178,-0.291 0.225178,-0.7211 l 0,-0.5693 z"
           style="font-style:normal;font-variant:normal;font-weight:bold;font-stretch:normal;font-family:'Courier New';-inkscape-font-specification:'Courier New Bold'"
           id="path4175" />
        <path
           d="m 36.539903,1000.6889 0,2.8388 0.523727,0 q 0.187226,0 0.265658,0.073 0.08096,0.071 0.08096,0.1873 0,0.1138 -0.08096,0.1872 -0.07843,0.071 -0.265658,0.071 l -1.566121,0 q -0.187226,0 -0.268188,-0.071 -0.07843,-0.073 -0.07843,-0.1898 0,-0.1138 0.07843,-0.1847 0.08096,-0.073 0.268188,-0.073 l 0.523727,0 0,-2.1633 -0.463005,0.1215 q -0.111323,0.03 -0.166985,0.03 -0.09867,0 -0.172046,-0.078 -0.07084,-0.078 -0.07084,-0.1923 0,-0.1037 0.05313,-0.1619 0.05313,-0.061 0.222647,-0.1063 l 1.115766,-0.2884 z"
           style="font-style:normal;font-variant:normal;font-weight:bold;font-stretch:normal;font-family:'Courier New';-inkscape-font-specification:'Courier New Bold'"
           id="path4177" />
        <path
           d="m 38.89794,1003.5277 1.136006,0 q 0.09361,-0.076 0.177106,-0.076 0.118914,0 0.187226,0.078 0.07084,0.078 0.07084,0.2682 l 0,0.2479 -2.363095,0 0,-0.549 q 1.401665,-1.1562 1.692624,-1.4877 0.146745,-0.1695 0.146745,-0.3213 0,-0.1898 -0.166986,-0.334 -0.164455,-0.1467 -0.440234,-0.1467 -0.278309,0 -0.463005,0.1619 -0.09614,0.086 -0.154335,0.2555 -0.03542,0.1063 -0.09867,0.1518 -0.06072,0.046 -0.151805,0.046 -0.106263,0 -0.184696,-0.076 -0.0759,-0.076 -0.0759,-0.1771 0,-0.1518 0.139154,-0.3795 0.141685,-0.2277 0.409874,-0.3644 0.270718,-0.1366 0.586978,-0.1366 0.490836,0 0.804566,0.2986 0.31373,0.296 0.31373,0.7185 0,0.2151 -0.09108,0.3998 -0.08855,0.1821 -0.430113,0.506 -0.268189,0.2555 -1.044924,0.9159 z"
           style="font-style:normal;font-variant:normal;font-weight:bold;font-stretch:normal;font-family:'Courier New';-inkscape-font-specification:'Courier New Bold'"
           id="path4179" />
        <path
           d="m 43.229441,1002.3132 q 0.230237,0.1569 0.344091,0.3644 0.113853,0.2049 0.113853,0.4604 0,0.2758 -0.151805,0.5111 -0.149274,0.2328 -0.435174,0.3542 -0.285899,0.1189 -0.748904,0.1189 -0.602159,0 -0.905769,-0.1872 -0.169515,-0.1063 -0.169515,-0.253 0,-0.1113 0.07337,-0.1872 0.0759,-0.079 0.182166,-0.079 0.07337,0 0.151805,0.051 0.111323,0.076 0.209997,0.1012 0.151805,0.036 0.417463,0.036 0.452885,0 0.655291,-0.1164 0.202407,-0.1189 0.202407,-0.334 0,-0.1594 -0.118914,-0.3061 -0.116384,-0.1493 -0.31373,-0.2303 -0.113854,-0.046 -0.384573,-0.063 -0.129034,-0.01 -0.199876,-0.078 -0.06831,-0.073 -0.06831,-0.1796 0,-0.1113 0.0759,-0.1872 0.0759,-0.076 0.192286,-0.076 0.258069,0 0.275779,0 0.101203,-0.01 0.202407,-0.066 0.101203,-0.056 0.161925,-0.1518 0.06325,-0.099 0.06325,-0.2024 0,-0.1645 -0.146745,-0.2834 -0.144214,-0.1215 -0.435174,-0.1215 -0.374452,0 -0.571798,0.2176 -0.05819,0.063 -0.09361,0.081 -0.05313,0.028 -0.118914,0.028 -0.106263,0 -0.182166,-0.076 -0.0759,-0.076 -0.0759,-0.1872 0,-0.1746 0.232767,-0.339 0.339031,-0.2404 0.847577,-0.2404 0.480716,0 0.771675,0.2733 0.29096,0.2732 0.29096,0.6578 0,0.1999 -0.08602,0.3744 -0.08602,0.1721 -0.258068,0.3188 z"
           style="font-style:normal;font-variant:normal;font-weight:bold;font-stretch:normal;font-family:'Courier New';-inkscape-font-specification:'Courier New Bold'"
           id="path4181" />
        <path
           d="m 46.356619,1000.7724 0,2.0291 q 0.164455,0 0.242887,0.073 0.07843,0.071 0.07843,0.1847 0,0.1138 -0.08096,0.1872 -0.07843,0.073 -0.240357,0.073 l 0,0.2075 q 0.164455,0 0.242887,0.073 0.07843,0.073 0.07843,0.1873 0,0.1138 -0.08096,0.1872 -0.07843,0.071 -0.265658,0.071 l -0.695773,0 q -0.187226,0 -0.268188,-0.071 -0.07843,-0.073 -0.07843,-0.1898 0,-0.1138 0.07843,-0.1847 0.08096,-0.073 0.268188,-0.073 l 0.202407,0 0,-0.2075 -1.409255,0 0,-0.4327 1.24227,-2.1151 0.685652,0 z m -0.518667,2.0291 0,-1.2751 -0.751434,1.2751 0.751434,0 z"
           style="font-style:normal;font-variant:normal;font-weight:bold;font-stretch:normal;font-family:'Courier New';-inkscape-font-specification:'Courier New Bold'"
           id="path4183" />
        <path
           d="m 48.266831,1001.2911 0,0.6173 q 0.28843,-0.091 0.523727,-0.091 0.478186,0 0.794446,0.3264 0.31626,0.3264 0.31626,0.8425 0,0.5313 -0.32132,0.8349 -0.318791,0.3011 -0.979142,0.3011 -0.581919,0 -0.920949,-0.2201 -0.197347,-0.1265 -0.197347,-0.2909 0,-0.1038 0.0759,-0.1797 0.07843,-0.078 0.184696,-0.078 0.08855,0 0.192286,0.086 0.103733,0.083 0.217587,0.1164 0.161925,0.048 0.414933,0.048 0.470595,0 0.642641,-0.1493 0.172045,-0.1518 0.172045,-0.463 0,-0.3062 -0.166985,-0.4807 -0.164455,-0.1746 -0.425054,-0.1746 -0.280839,0 -0.64011,0.1822 -0.08096,0.043 -0.141685,0.043 -0.111323,0 -0.187226,-0.081 -0.07337,-0.081 -0.07337,-0.21 l 0,-1.4978 1.586361,0 q 0.187226,0 0.265658,0.073 0.08096,0.071 0.08096,0.1872 0,0.1139 -0.08096,0.1872 -0.07843,0.071 -0.265658,0.071 l -1.067695,0 z"
           style="font-style:normal;font-variant:normal;font-weight:bold;font-stretch:normal;font-family:'Courier New';-inkscape-font-specification:'Courier New Bold'"
           id="path4185" />
      </g>
      <rect
         style="color:#000000;clip-rule:nonzero;display:inline;overflow:visible;visibility:visible;opacity:1;isolation:auto;mix-blend-mode:normal;color-interpolation:sRGB;color-interpolation-filters:linearRGB;solid-color:#000000;solid-opacity:1;fill:#2b2200;fill-opacity:1;fill-rule:nonzero;stroke:none;stroke-width:2;stroke-linecap:round;stroke-linejoin:round;stroke-miterlimit:4;stroke-dasharray:none;stroke-dashoffset:0;stroke-opacity:1;color-rendering:auto;image-rendering:auto;shape-rendering:auto;text-rendering:auto;enable-background:accumulate"
         id="rect4146"
         width="44"
         height="2"
         x="4"
         y="1010.3622"
         ry="1.12019e-05" />
      <rect
         style="color:#000000;clip-rule:nonzero;display:inline;overflow:visible;visibility:visible;opacity:1;isolation:auto;mix-blend-mode:normal;color-interpolation:sRGB;color-interpolation-filters:linearRGB;solid-color:#000000;solid-opacity:1;fill:#2b2200;fill-opacity:1;fill-rule:nonzero;stroke:none;stroke-width:2;stroke-linecap:round;stroke-linejoin:round;stroke-miterlimit:4;stroke-dasharray:none;stroke-dashoffset:0;stroke-opacity:1;color-rendering:auto;image-rendering:auto;shape-rendering:auto;text-rendering:auto;enable-background:accumulate"
         id="rect4148"
         width="36"
         height="2"
         x="4"
         y="1016.3622"
         ry="1.12019e-05" />
      <rect
         style="color:#000000;clip-rule:nonzero;display:inline;overflow:visible;visibility:visible;opacity:1;isolation:auto;mix-blend-mode:normal;color-interpolation:sRGB;color-interpolation-filters:linearRGB;solid-color:#000000;solid-opacity:1;fill:#2b2200;fill-opacity:1;fill-rule:nonzero;stroke:none;stroke-width:2;stroke-linecap:round;stroke-linejoin:round;stroke-miterlimit:4;stroke-dasharray:none;stroke-dashoffset:0;stroke-opacity:1;color-rendering:auto;image-rendering:auto;shape-rendering:auto;text-rendering:auto;enable-background:accumulate"
         id="rect4150"
         width="44"
         height="2"
         x="4"
         y="1022.3622"
         ry="1.12019e-05" />
      <rect
         style="color:#000000;clip-rule:nonzero;display:inline;overflow:visible;visibility:visible;opacity:1;isolation:auto;mix-blend-mode:normal;color-interpolation:sRGB;color-interpolation-filters:linearRGB;solid-color:#000000;solid-opacity:1;fill:#2b2200;fill-opacity:1;fill-rule:nonzero;stroke:none;stroke-width:2;stroke-linecap:round;stroke-linejoin:round;stroke-miterlimit:4;stroke-dasharray:none;stroke-dashoffset:0;stroke-opacity:1;color-rendering:auto;image-rendering:auto;shape-rendering:auto;text-rendering:auto;enable-background:accumulate"
         id="rect4152"
         width="16"
         height="2"
         x="60"
         y="1020.3622"
         ry="1.12019e-05" />
    </g>
  </g>
</svg>
