<?xml version="1.0" encoding="UTF-8" standalone="no"?>
<svg
   xmlns:dc="http://purl.org/dc/elements/1.1/"
   xmlns:cc="http://creativecommons.org/ns#"
   xmlns:rdf="http://www.w3.org/1999/02/22-rdf-syntax-ns#"
   xmlns:svg="http://www.w3.org/2000/svg"
   xmlns="http://www.w3.org/2000/svg"
   version="1.1"
   id="svg5346"
   viewBox="0 0 160 160"
   height="160"
   width="160">
  <defs
     id="defs5348" />
  <metadata
     id="metadata5351">
    <rdf:RDF>
      <cc:Work
         rdf:about="">
        <dc:format>image/svg+xml</dc:format>
        <dc:type
           rdf:resource="http://purl.org/dc/dcmitype/StillImage" />
        <dc:title></dc:title>
      </cc:Work>
    </rdf:RDF>
  </metadata>
  <g
     transform="translate(0,-892.36221)"
     id="layer1">
    <g
       id="g5202"
       transform="matrix(1.4382966,0,0,-1.4382966,160.81289,1431.8564)">
      <path
         d="m -77.105878,318.40071 c 1.1429,-11.441 -0.0625,-33.524 8.8164,-39.498 13.5218,-9.1 9.8476,-9.759 22.5278,-0.421 12.676,9.336 11.02,24.58 10.943,41.309 l -42.2872,-1.39"
         style="fill:#8e331e;fill-opacity:1;fill-rule:evenodd;stroke:none"
         id="path5148" />
      <path
         d="m -45.076678,341.67171 c 26.577,5.257 9.494,-54.898 6.591,-67.518 -1.26,-5.477 -3.102,-4.082 -7.899,3.872 0,0 9.216,22.618 9.849,35.447 0.634,12.828 -3.888,17.243 -6.647,22.087 -2.759,4.843 -1.894,6.112 -1.894,6.112"
         style="fill:#8e331e;fill-opacity:1;fill-rule:evenodd;stroke:none"
         id="path5150" />
      <path
         d="m -42.297678,341.03471 c 0.826,-7.271 -1.109,-8.155 -6.969,-12.035 -5.859,-3.88 -8.3927,-3.881 -7.4427,-3.405 0.95,0.475 5.4637,8.314 5.4637,8.314 0,0 -6.097,-4.91 -12.2735,-7.364 -6.1762,-2.455 -8.3934,-1.505 -8.3934,-1.505 0,0 5.4637,7.127 4.7508,6.573 -0.7125,-0.555 -5.9387,-3.96 -6.6512,-5.543 -0.7125,-1.584 -2.2339,-8.703 -1.3632,-16.542 0.5832,-5.251 11.1468,-21.675 11.3316,-29.395 0.093,-3.893 -5.6398,-9.626 -7.3277,-7.679 -6.85,7.901 -8.034,55.324 -7.7098,57.575 0.8316,5.769 4.0859,9.97 7.7242,12.869 7.7883,6.206 27.9632,6.032 28.8602,-1.863"
         style="fill:#8e331e;fill-opacity:1;fill-rule:evenodd;stroke:none"
         id="path5152" />
      <path
         d="m -46.917678,276.54371 c 0.462,0.346 10.48,7.913 10.48,7.913 4.591,-1.515 5.915,-14.535 6.383,-20.607 l -10.969,0 -5.894,12.694"
         style="fill:#a9bdc6;fill-opacity:1;fill-rule:evenodd;stroke:none"
         id="path5154" />
      <path
         d="m -64.334078,283.29071 c 0.1059,0.835 0.7278,6.456 0.7278,6.456 l 14.8956,0.1 -0.203,-4.627 -15.4204,-1.929"
         style="fill:#9bc3d6;fill-opacity:1;fill-rule:evenodd;stroke:none"
         id="path5156" />
      <path
         d="m -56.317978,293.04471 -4.8411,0 0,-3.056 c 0.0032,-1.9 -0.3132,-1.505 -2.0875,-2.492 0,0 -1.7109,-1.403 -2.232,-1.57 2.1512,-6.925 3.7067,-15.83 7.9117,-22.077 l 2.4972,0 c 4.205,6.247 5.761,15.152 7.912,22.077 -0.521,0.167 -2.232,1.57 -2.232,1.57 -1.774,0.987 -2.091,0.592 -2.088,2.492 l 0,3.056 -4.8403,0"
         style="fill:#f4ad69;fill-opacity:1;fill-rule:evenodd;stroke:none"
         id="path5158" />
      <path
         d="m -65.456278,276.54371 c -0.4617,0.346 -10.4797,7.913 -10.4797,7.913 -4.5906,-1.515 -5.9152,-14.535 -6.3824,-20.607 l 10.9683,0 5.8938,12.694"
         style="fill:#a9bdc6;fill-opacity:1;fill-rule:evenodd;stroke:none"
         id="path5160" />
      <path
         d="m -59.317278,280.67071 c -4.2609,1.564 -4.7941,6.131 -3.9312,6.801 -2.5805,-1.176 -12.0723,-2.339 -13.1258,-3.252 0.8551,-1.87 2.2348,-12.094 3.3555,-20.37 l 33.6641,0 c 1.121,8.276 2.5,18.5 3.355,20.37 -1.053,0.913 -10.545,2.076 -13.125,3.252 0.862,-0.67 0.329,-5.237 -3.932,-6.801 l 10e-4,-10e-4 -3.362,-11.426 -2.9,11.426 4e-4,10e-4"
         style="fill:#b6ced9;fill-opacity:1;fill-rule:evenodd;stroke:none"
         id="path5162" />
      <path
         d="m -70.546178,314.44471 c 0.8024,-3.606 -0.7925,-6.61 -3.5238,-7.257 -2.7309,-0.646 -5.5609,1.308 -6.3629,4.915 -0.8027,3.607 0.7598,7.056 3.4906,7.703 2.7305,0.647 5.5938,-1.752 6.3961,-5.361"
         style="fill:#f5b870;fill-opacity:1;fill-rule:evenodd;stroke:none"
         id="path5164" />
      <path
         d="m -41.023678,314.44471 c -0.803,-3.606 0.792,-6.61 3.523,-7.257 2.731,-0.646 5.561,1.308 6.363,4.915 0.803,3.607 -0.76,7.056 -3.49,7.703 -2.731,0.647 -5.594,-1.752 -6.396,-5.361"
         style="fill:#f5b870;fill-opacity:1;fill-rule:evenodd;stroke:none"
         id="path5166" />
      <path
         d="m -55.785178,346.25571 -0.0621,-0.003 c -1.4461,0.058 -2.8469,0.114 -2.8469,0.114 l 0.0062,-0.226 c -0.1855,-0.007 -0.2984,-0.013 -0.2984,-0.013 -5.7785,-0.229 -11.2188,-3.342 -14.7082,-8.082 -3.4918,-4.745 -3.9559,-10.721 -3.6809,-16.443 0.7082,-14.704 8.9446,-31.214 21.5903,-31.336 12.6455,0.122 20.8825,16.632 21.5905,31.336 0.275,5.722 -0.189,11.698 -3.681,16.443 -3.489,4.74 -8.93,7.853 -14.708,8.082 0,0 -0.113,0.006 -0.299,0.013 l 0.006,0.226 c 0,0 -1.4,-0.056 -2.8464,-0.114 l -0.0621,0.003"
         style="fill:#f7c386;fill-opacity:1;fill-rule:evenodd;stroke:none"
         id="path5168" />
      <path
         d="m -46.797678,340.55871 c -0.173,-0.808 -0.019,-5.137 4.962,-11.772 4.981,-6.635 5.366,-7.213 5.366,-7.213 1.418,2.462 0.892,3.647 2.298,0.556 0,0 1.28,5.561 0.011,10.754 -1.27,5.194 -2.872,7.151 -5.073,8.027 -2.2,0.875 -7.564,-0.352 -7.564,-0.352"
         style="fill:#8e331e;fill-opacity:1;fill-rule:evenodd;stroke:none"
         id="path5170" />
      <path
         d="m -74.554378,326.53671 c -0.8656,-0.981 -4.1726,3.598 -3.566,-1.996 0.6063,-5.593 1.7715,-12.141 3.4348,-16.463 -0.8051,5.41 -2.2567,11.728 0.1312,18.459"
         style="fill:#8e331e;fill-opacity:1;fill-rule:evenodd;stroke:none"
         id="path5172" />
      <path
         d="m -35.199678,321.05371 c 0.227,3.792 0.902,12.968 -0.051,15.331 -2.749,6.813 -7.784,9.572 -16.237,10.417 -2.596,0.259 1.34,-4.115 1.34,-4.115 6.997,-9.909 3.536,-17.497 14.948,-21.633"
         style="fill:#8e331e;fill-opacity:1;fill-rule:evenodd;stroke:none"
         id="path5174" />
      <path
         d="m -44.619678,338.49771 c -19.487,-2.843 -16.8444,-19.583 -32.3437,-17.136 -0.8949,0.141 -1.948,4.835 -1.948,4.835 0,0 1.6809,7.775 4.7172,12.238 3.0363,4.463 6.416,5.617 9.8098,7.011 3.3937,1.393 12.4327,2.427 13.9717,0.46 l 5.793,-7.408"
         style="fill:#8e331e;fill-opacity:1;fill-rule:evenodd;stroke:none"
         id="path5176" />
      <path
         d="m -60.104378,283.27871 2.4414,-0.918 -0.5433,-6.069 -3.225,3.857 1.3269,3.13"
         style="fill:#acc5cf;fill-opacity:1;fill-rule:evenodd;stroke:none"
         id="path5178" />
      <path
         d="m -65.859378,287.44271 2.2531,2.304 5.9433,-7.386 -5.6839,-4.996 -2.5125,10.078"
         style="fill:#cde6f0;fill-opacity:1;fill-rule:evenodd;stroke:none"
         id="path5180" />
      <path
         d="m -52.212678,283.37871 -2.442,-0.918 0.39,-5.898 3.378,3.686 -1.326,3.13"
         style="fill:#acc5cf;fill-opacity:1;fill-rule:evenodd;stroke:none"
         id="path5182" />
      <path
         d="m -46.457678,287.54271 -2.253,2.304 -5.944,-7.386 5.684,-4.996 2.513,10.078"
         style="fill:#cde6f0;fill-opacity:1;fill-rule:evenodd;stroke:none"
         id="path5184" />
      <path
         d="m -74.052378,284.99171 c -1.1746,-0.272 -2.0434,-0.53 -2.3219,-0.772 5.2406,-9.949 -2.4973,-13.941 0.3551,-20.37 l 39.6645,0 c 2.852,6.429 -4.885,10.421 0.355,20.37 -0.278,0.242 -1.147,0.5 -2.321,0.772 -1.508,-7.687 -10.023,-17.437 -18.1985,-17.443 -8.1875,-0.006 -16.036,9.744 -17.5332,17.443"
         style="fill:#b6ced9;fill-opacity:1;fill-rule:evenodd;stroke:none"
         id="path5186" />
      <path
         d="m -64.719978,311.67471 c 0.9219,0 1.6731,0.751 1.6731,1.673 0,0.922 -0.7512,1.674 -1.6731,1.674 -0.9219,0 -1.6738,-0.752 -1.6738,-1.674 0,-0.922 0.7519,-1.673 1.6738,-1.673"
         style="fill:#383434;fill-opacity:1;fill-rule:evenodd;stroke:none"
         id="path5188" />
      <path
         d="m -45.849678,311.67471 c 0.921,0 1.673,0.751 1.673,1.673 0,0.922 -0.752,1.674 -1.673,1.674 -0.922,0 -1.674,-0.752 -1.674,-1.674 0,-0.922 0.752,-1.673 1.674,-1.673"
         style="fill:#383434;fill-opacity:1;fill-rule:evenodd;stroke:none"
         id="path5190" />
      <path
         d="m -49.320678,301.89171 c -1.022,-5.749 -10.2876,-5.749 -11.3095,0 3.0715,-4.1 8.2385,-4.1 11.3095,0"
         style="fill:#d5724d;fill-opacity:1;fill-rule:evenodd;stroke:none"
         id="path5192" />
      <path
         d="m -58.753178,304.86971 c -0.0195,0.006 -0.023,0.023 -0.0059,0.051 0,0.084 0.0477,0.166 0.1364,0.243 0.6871,1.324 2.0394,5.183 2.6593,9.428 0.679,-0.041 -0.6734,-7.225 -1.2554,-8.939 0.5883,0.102 1.3062,0.162 2.0801,0.162 2,0 3.621,-0.401 3.621,-0.894 0,-0.494 -1.621,-0.895 -3.621,-0.895 -1.9305,0 -3.5082,0.374 -3.6145,0.844"
         style="fill:#e3aa6a;fill-opacity:1;fill-rule:evenodd;stroke:none"
         id="path5194" />
      <path
         d="m -50.841678,317.63471 c -0.992,-0.411 0.656,2.275 5.529,2.382 5.68,0.123 7.408,-2.609 5.17,-1.824 -4.828,1.692 -9.127,0.094 -10.699,-0.558"
         style="fill:#8e331e;fill-opacity:1;fill-rule:evenodd;stroke:none"
         id="path5196" />
      <path
         d="m -59.728178,317.63471 c 0.991,-0.411 -0.6566,2.275 -5.5297,2.382 -5.6801,0.123 -7.4082,-2.609 -5.1703,-1.824 4.8281,1.692 9.1277,0.094 10.7,-0.558"
         style="fill:#8e331e;fill-opacity:1;fill-rule:evenodd;stroke:none"
         id="path5198" />
      <path
         d="m -37.111678,326.30671 c 0.866,-0.981 4.173,3.598 3.567,-1.995 -0.607,-5.594 -1.772,-12.142 -3.435,-16.463 0.805,5.41 2.256,11.727 -0.132,18.458"
         style="fill:#8e331e;fill-opacity:1;fill-rule:evenodd;stroke:none"
         id="path5200" />
    </g>
  </g>
</svg>
