<?xml version="1.0" encoding="UTF-8" standalone="no"?>
<!-- Created with Inkscape (http://www.inkscape.org/) -->

<svg
   xmlns:dc="http://purl.org/dc/elements/1.1/"
   xmlns:cc="http://creativecommons.org/ns#"
   xmlns:rdf="http://www.w3.org/1999/02/22-rdf-syntax-ns#"
   xmlns:svg="http://www.w3.org/2000/svg"
   xmlns="http://www.w3.org/2000/svg"
   xmlns:sodipodi="http://sodipodi.sourceforge.net/DTD/sodipodi-0.dtd"
   xmlns:inkscape="http://www.inkscape.org/namespaces/inkscape"
   width="160"
   height="160"
   viewBox="0 0 160 160"
   id="svg5346"
   version="1.1"
   inkscape:version="0.91 r13725"
   sodipodi:docname="male.svg">
  <defs
     id="defs5348" />
  <sodipodi:namedview
     id="base"
     pagecolor="#ffffff"
     bordercolor="#666666"
     borderopacity="1.0"
     inkscape:pageopacity="0.0"
     inkscape:pageshadow="2"
     inkscape:zoom="1"
     inkscape:cx="48.178404"
     inkscape:cy="182.4123"
     inkscape:document-units="px"
     inkscape:current-layer="layer1"
     showgrid="false"
     units="px"
     inkscape:window-width="1887"
     inkscape:window-height="1056"
     inkscape:window-x="33"
     inkscape:window-y="24"
     inkscape:window-maximized="1" />
  <metadata
     id="metadata5351">
    <rdf:RDF>
      <cc:Work
         rdf:about="">
        <dc:format>image/svg+xml</dc:format>
        <dc:type
           rdf:resource="http://purl.org/dc/dcmitype/StillImage" />
        <dc:title></dc:title>
      </cc:Work>
    </rdf:RDF>
  </metadata>
  <g
     inkscape:label="Layer 1"
     inkscape:groupmode="layer"
     id="layer1"
     transform="translate(0,-892.36221)">
    <g
       id="g5269"
       transform="matrix(1.3690972,0,0,-1.3690972,-336.76623,1263.9247)">
      <path
         inkscape:connector-curvature="0"
         id="path5231"
         style="fill:#76726e;fill-opacity:1;fill-rule:evenodd;stroke:none"
         d="m 297.68,176.658 -0.142,4.584 14.474,0.002 -0.137,-4.442 -14.195,-0.144" />
      <path
         inkscape:connector-curvature="0"
         id="path5233"
         style="fill:#787472;fill-opacity:1;fill-rule:evenodd;stroke:none"
         d="m 295.108,167.221 c -0.461,0.347 -10.774,5.202 -10.774,5.202 -4.591,-1.515 -5.621,-11.824 -6.088,-17.896 l 10.969,0 5.893,12.694" />
      <path
         inkscape:connector-curvature="0"
         id="path5235"
         style="fill:#787472;fill-opacity:1;fill-rule:evenodd;stroke:none"
         d="m 313.385,167.221 c 0.461,0.347 10.774,5.202 10.774,5.202 4.591,-1.515 5.621,-11.824 6.088,-17.896 l -10.969,0 -5.893,12.694" />
      <path
         inkscape:connector-curvature="0"
         id="path5237"
         style="fill:#f4ad69;fill-opacity:1;fill-rule:evenodd;stroke:none"
         d="m 304.246,183.722 -4.84,0 0,-3.056 c 0.003,-1.899 -0.314,-1.505 -2.088,-2.492 0,0 -1.711,-1.403 -2.232,-1.569 2.151,-6.925 3.707,-15.831 7.912,-22.078 l 2.497,0 c 4.205,6.247 5.761,15.153 7.912,22.078 -0.521,0.166 -2.232,1.569 -2.232,1.569 -1.774,0.987 -2.091,0.593 -2.088,2.492 l 0,3.056 -4.841,0" />
      <path
         inkscape:connector-curvature="0"
         id="path5239"
         style="fill:#7f7974;fill-opacity:1;fill-rule:evenodd;stroke:none"
         d="m 304.679,166.905 c 0,0 -1.51,1.992 -2.205,3.122 -2.103,3.414 -5.089,8.084 -5.158,8.122 -2.58,-1.176 -11.989,-4.862 -13.042,-5.775 0.855,-1.87 2.151,-9.571 3.272,-17.847 l 33.401,0 c 1.121,8.276 2.417,15.977 3.272,17.847 -1.054,0.913 -10.462,4.599 -13.042,5.775 -0.065,-0.036 -1.931,-4.847 -4.101,-8.12 -0.9,-1.358 -2.397,-3.124 -2.397,-3.124" />
      <path
         inkscape:connector-curvature="0"
         id="path5241"
         style="fill:#f5b870;fill-opacity:1;fill-rule:evenodd;stroke:none"
         d="m 317.199,205.276 c -0.694,-3.936 1.641,-7.215 5.216,-7.922 3.574,-0.705 7.03,1.429 7.721,5.366 0.693,3.937 -1.641,7.702 -5.215,8.408 -3.573,0.706 -7.031,-1.912 -7.722,-5.852" />
      <path
         inkscape:connector-curvature="0"
         id="path5243"
         style="fill:#f5b870;fill-opacity:1;fill-rule:evenodd;stroke:none"
         d="m 292.264,205.276 c 0.692,-3.936 -1.642,-7.215 -5.217,-7.922 -3.573,-0.705 -7.03,1.429 -7.722,5.366 -0.693,3.937 1.642,7.702 5.215,8.408 3.574,0.706 7.031,-1.912 7.724,-5.852" />
      <path
         inkscape:connector-curvature="0"
         id="path5245"
         style="fill:#f7c386;fill-opacity:1;fill-rule:evenodd;stroke:none"
         d="m 322.565,228.724 c -3.49,4.74 -8.931,7.852 -14.708,8.082 -0.001,0 -0.114,0.005 -0.3,0.012 l 0.007,0.226 c 0,0 -1.4,-0.056 -2.847,-0.113 -1.446,0.057 -2.846,0.113 -2.846,0.113 l 0.006,-0.226 c -0.186,-0.007 -0.299,-0.012 -0.299,-0.012 -5.778,-0.23 -11.219,-3.342 -14.708,-8.082 -3.492,-4.745 -3.956,-10.721 -3.681,-16.444 0.208,-4.324 0.974,-11.305 1.189,-15.63 5.553,-20.772 35.504,-21.112 40.679,0 0.215,4.325 0.979,11.306 1.188,15.63 0.275,5.723 -0.189,11.699 -3.68,16.444" />
      <path
         inkscape:connector-curvature="0"
         id="path5247"
         style="fill:#392017;fill-opacity:1;fill-rule:evenodd;stroke:none"
         d="m 287.033,220.759 c -0.275,-0.598 1.311,5.401 4.79,5.505 3.643,0.108 26.28,-1.269 27.439,0.246 3.836,-4.855 6.377,-24.798 6.595,-24.755 1.163,0.226 1.344,10.559 1.343,11.692 -0.006,5.277 1.527,15.438 -8.022,21.77 -5.872,3.895 -18.011,4.282 -24.769,2.077 -4.707,-1.536 -9.22,-5.537 -10.898,-10.198 -1.842,-5.119 -1.795,-9.119 -1.188,-19.255 0.066,-1.1 0.195,-2.201 0.348,-3.291 0.101,-0.725 0.195,-1.468 0.371,-2.179 0.957,-3.861 1.048,13.826 3.991,18.388" />
      <path
         inkscape:connector-curvature="0"
         id="path5249"
         style="fill:#392017;fill-opacity:1;fill-rule:evenodd;stroke:none"
         d="m 285.656,226.126 c 0.154,-0.445 0.736,-2.634 8.332,-5.207 7.595,-2.572 14.885,-2.633 14.333,-2.511 -0.551,0.122 -2.205,1.592 -2.205,1.592 0,0 5.452,-1.776 9.433,-1.408 3.982,0.367 6.861,2.634 6.371,2.634 -0.49,0 -2.695,0.98 -2.695,0.98 0,0 4.962,2.389 7.841,5.697 2.879,3.308 3.798,6.431 3.43,6.125 -0.367,-0.306 -2.818,-1.531 -2.45,-1.102 0.367,0.428 0.674,5.329 0.674,5.329 0,0 -2.144,-1.47 -2.757,-1.592 -0.612,-0.123 0.674,4.043 0.674,4.043 0,0 -5.88,-1.102 -9.249,-0.612 -3.369,0.489 -5.268,1.47 -10.23,1.715 -4.961,0.245 -7.963,-1.226 -7.963,-1.226 l 0.797,1.593 c 0,0 -6.953,-1.99 -8.79,-3.368 -1.838,-1.379 -3.553,-4.166 -3.553,-4.166 0,0 -1.745,0.552 -3.154,0.49 -1.409,-0.061 -2.021,-0.398 -2.021,-0.398 l 3.185,-1.041 c 0,0 -1.44,-0.399 -2.512,-1.348 -1.072,-0.949 -1.96,-2.052 -1.501,-1.776 0.46,0.275 3.094,0.52 3.094,0.52 l 0.916,-4.963" />
      <path
         inkscape:connector-curvature="0"
         id="path5251"
         style="fill:#6d6764;fill-opacity:1;fill-rule:evenodd;stroke:none"
         d="m 299.73,173.971 c 0.26,0 1.719,-0.231 1.719,-0.231 l 1.025,-3.713 -3.667,1.694 0.923,2.25" />
      <path
         inkscape:connector-curvature="0"
         id="path5253"
         style="fill:#9a958e;fill-opacity:1;fill-rule:evenodd;stroke:none"
         d="m 297.538,181.242 3.911,-7.502 c 0,0 -4.027,-3.952 -3.969,-3.779 0.058,0.173 -1.807,7.165 -1.668,7.536 0.139,0.37 1.726,3.745 1.726,3.745" />
      <path
         inkscape:connector-curvature="0"
         id="path5255"
         style="fill:#6d6764;fill-opacity:1;fill-rule:evenodd;stroke:none"
         d="m 309.819,173.973 c -0.26,0 -1.719,-0.231 -1.719,-0.231 l -1.024,-3.713 3.666,1.694 -0.923,2.25" />
      <path
         inkscape:connector-curvature="0"
         id="path5257"
         style="fill:#9a958e;fill-opacity:1;fill-rule:evenodd;stroke:none"
         d="m 312.012,181.244 -3.912,-7.502 c 0,0 4.027,-3.952 3.969,-3.779 -0.057,0.173 1.807,7.165 1.668,7.535 -0.138,0.37 -1.725,3.746 -1.725,3.746" />
      <path
         inkscape:connector-curvature="0"
         id="path5259"
         style="fill:#383434;fill-opacity:1;fill-rule:evenodd;stroke:none"
         d="m 301.04,211.006 0,0 c 0.589,-0.46 0.768,-1.457 0.819,-2.685 0.211,-5.062 -2.615,-11.256 -8.281,-11.559 -4.273,-0.228 -7.162,1.785 -8.329,6.125 -0.32,1.189 -0.46,2.826 -0.409,3.9 0.051,1.074 0.447,2.135 1.189,3.043 1.973,2.415 8.667,2.276 11.431,2.097 0.978,-0.063 2.787,-0.3 3.58,-0.921 z m 7.354,0 0,0 c 0.793,0.621 2.603,0.858 3.58,0.921 2.764,0.179 9.458,0.318 11.431,-2.097 0.742,-0.908 1.138,-1.969 1.189,-3.043 0.051,-1.074 -0.089,-2.711 -0.409,-3.9 -1.167,-4.34 -4.055,-6.353 -8.329,-6.125 -5.666,0.303 -8.491,6.497 -8.281,11.559 0.052,1.228 0.231,2.225 0.819,2.685 l 0,0 z m -5.343,-2.781 0,0 c -0.15,-0.117 -0.363,0.264 -0.383,0.383 -0.21,1.191 0.069,2.9 -1.599,3.21 l 7.296,0 c -1.668,-0.31 -1.389,-2.019 -1.598,-3.21 -0.021,-0.119 -0.234,-0.492 -0.384,-0.383 -0.15,0.108 -3.181,0.117 -3.332,0 l 0,0 z m -17.236,2.608 c -0.906,-1.007 -1.307,-1.871 -1.624,-3.011 0,0 -0.831,-0.032 -1.113,-0.275 -0.281,-0.243 -0.287,-1.093 -0.031,-1.279 0.255,-0.185 1.093,-0.172 1.093,-0.172 -0.007,-6.003 3.229,-10.28 9.403,-10.057 3.045,0.11 5.448,1.409 7.181,4.373 0.971,1.662 1.662,3.734 1.816,4.808 0.153,1.074 0.281,1.611 0.537,1.764 0.206,0.124 1.248,0.14 1.64,0.141 0.392,-0.001 1.434,-0.017 1.641,-0.141 0.256,-0.153 0.383,-0.69 0.537,-1.764 0.153,-1.074 0.844,-3.146 1.815,-4.808 1.734,-2.964 4.136,-4.263 7.182,-4.373 6.173,-0.223 9.409,4.054 9.402,10.057 0,0 0.838,-0.013 1.094,0.172 0.255,0.186 0.249,1.036 -0.032,1.279 -0.281,0.243 -1.113,0.275 -1.113,0.275 -0.316,1.14 -0.718,2.004 -1.623,3.011 -0.843,0.936 -2.871,1.628 -5.357,1.824 -6.158,0.485 -20.433,0.452 -26.606,0.065 -2.698,-0.17 -4.942,-0.888 -5.842,-1.889 l 0,0" />
      <path
         inkscape:connector-curvature="0"
         id="path5261"
         style="fill:#525153;fill-opacity:1;fill-rule:evenodd;stroke:none"
         d="m 285.899,209.927 c -0.755,-0.924 -1.158,-2.004 -1.211,-3.097 -0.052,-1.094 0.091,-2.76 0.417,-3.97 0.644,-2.397 1.805,-4.097 3.427,-5.113 1.367,-0.856 3.061,-1.227 5.05,-1.121 5.767,0.309 8.643,6.613 8.428,11.765 -0.052,1.25 -0.234,2.265 -0.832,2.733 -0.807,0.632 -2.65,0.873 -3.644,0.937 -2.283,0.148 -7.199,0.269 -10.046,-1.003 -0.661,-0.296 -1.211,-0.667 -1.589,-1.131" />
      <path
         inkscape:connector-curvature="0"
         id="path5263"
         style="fill:#525153;fill-opacity:1;fill-rule:evenodd;stroke:none"
         d="m 307.481,208.365 c -0.213,-5.119 2.644,-11.381 8.373,-11.688 1.981,-0.106 3.669,0.265 5.028,1.121 1.606,1.01 2.755,2.696 3.393,5.072 0.323,1.203 0.466,2.858 0.414,3.944 -0.052,1.086 -0.453,2.159 -1.202,3.077 -0.374,0.458 -0.916,0.824 -1.568,1.117 -2.826,1.27 -7.72,1.15 -9.991,1.003 -0.988,-0.064 -2.818,-0.304 -3.62,-0.931 -0.594,-0.466 -0.775,-1.474 -0.827,-2.715" />
      <path
         inkscape:connector-curvature="0"
         id="path5265"
         style="fill:#d5724d;fill-opacity:1;fill-rule:evenodd;stroke:none"
         d="m 313.215,190.778 c -1.537,-1.967 -4.36,-3.286 -7.589,-3.286 -3.229,0 -6.052,1.319 -7.59,3.285 1.874,-1.353 4.493,-2.723 7.503,-2.723 3.01,0 5.803,1.37 7.676,2.724" />
      <path
         inkscape:connector-curvature="0"
         id="path5267"
         style="fill:#e3aa6a;fill-opacity:1;fill-rule:evenodd;stroke:none"
         d="m 301.792,193.061 c -0.019,0.007 -0.023,0.023 -0.006,0.051 0,0.085 0.048,0.166 0.137,0.244 0.687,1.323 2.04,5.182 2.659,9.428 0.679,-0.042 -0.673,-7.225 -1.255,-8.94 0.588,0.102 1.306,0.162 2.08,0.162 2,0 3.621,-0.4 3.621,-0.894 0,-0.494 -1.621,-0.895 -3.621,-0.895 -1.93,0 -3.508,0.374 -3.615,0.844" />
    </g>
  </g>
</svg>
